<svg width="500" height="96" viewBox="0 0 500 96" fill="none" xmlns="http://www.w3.org/2000/svg">
<path d="M486.132 48.6058C486.722 46.8751 488.292 45.625 490.12 45.625H495.29C497.919 45.625 499.842 48.1301 498.947 50.6025C492.935 67.2269 481.582 73 465.763 73C439.297 73 429.5 54.6196 429.5 36.8911C429.5 16.6857 441.715 0 465.636 0C481.772 0 494.88 6.7383 499.192 20.6024C499.922 22.9491 498.023 25.1589 495.565 25.1589H490.128C488.181 25.1589 486.569 23.7325 485.9 21.9041C483.373 15.0031 476.832 10.95 466.527 10.95C450.24 10.95 442.987 21.9 442.987 36.5C442.987 51.1 450.24 62.05 466.527 62.05C477.048 62.05 482.947 57.9598 486.132 48.6058Z" fill="white"/>
<path d="M414.651 43.6171V40.2434C414.651 38.3934 411.833 36.9653 410.058 37.4844C408.088 38.0605 405.508 38.4952 402.082 38.9299L387.589 40.7527C377.456 42.1849 372.326 44.6587 372.326 51.9499C372.326 58.3297 378.611 62.7566 387.974 62.7566C402.467 62.7566 414.651 55.0747 414.651 43.6171ZM374.691 21.778C374.521 22.8402 373.655 23.6965 372.579 23.6965H364.655C363.474 23.6965 362.544 22.6702 362.728 21.503C365.151 6.06816 376.548 0 395.797 0C409.521 0 428.812 4.90283 427.309 18.6349L426.808 22.7037L425.305 32.8756C424 43 426.5 52.5 432.5 62C435.698 66.5686 420.971 81.2931 416.416 66.7737C415.874 65.0488 413.311 64.2729 411.884 65.3834C405.68 70.2127 395.735 72.9122 386.819 72.9122C364.63 72.9122 359.5 61.1942 359.5 52.3405C359.5 39.7111 366.811 33.5917 388.358 31.1179L402.98 29.5555C410.162 28.9045 414.651 27.4723 414.651 21.3529C414.651 11.9784 405.673 10.1556 395.284 10.1556C385.083 10.1556 376.117 12.8918 374.691 21.778Z" fill="white"/>
<path d="M344.777 73C343.672 73 342.777 72.1046 342.777 71V28.1494C342.777 15.2196 335.016 11.3137 326.746 11.3137C315.167 11.3137 304.862 17.1052 304.862 30.3044V71C304.862 72.1046 303.966 73 302.862 73H294.138C293.034 73 292.138 72.1046 292.138 71V28.1494C292.138 15.2196 284.377 11.3137 276.107 11.3137C264.529 11.3137 254.223 18.452 254.223 32.3247V71C254.223 72.1046 253.328 73 252.223 73H243.5C242.395 73 241.5 72.1046 241.5 71V2C241.5 0.895432 242.395 0 243.5 0H252.438C253.558 0 254.46 0.919347 254.438 2.03894L254.226 12.8993C254.225 12.9901 254.298 13.0646 254.389 13.0646C254.444 13.0646 254.496 13.0355 254.526 12.9887C260.764 3.21584 270.916 0 280.56 0C288.39 0 296.117 3.08902 301.569 10.565C302.408 11.7159 304.154 11.816 305.094 10.7456C310.981 4.0408 318.724 0 330.181 0C336.924 0 355.5 3.36716 355.5 24.917V71C355.5 72.1046 354.605 73 353.5 73H344.777Z" fill="white"/>
<path d="M172.727 73C171.616 73 170.718 72.095 170.727 70.9844L171 36V2.18335C171 1.07878 171.895 0.183354 173 0.183354H180.82C181.925 0.183354 182.82 1.07878 182.82 2.18335V12.5928C182.82 12.6849 182.895 12.7595 182.987 12.7595C183.043 12.7595 183.095 12.7309 183.126 12.6844C189.405 3.27851 199.621 0.183354 209.328 0.183354C225.463 0.183354 237.5 7.18449 237.5 24.1687V71C237.5 72.1046 236.605 73 235.5 73H226.694C225.59 73 224.694 72.1046 224.694 71V26.7617C224.694 16.7786 218.676 11.074 204.846 11.074C193.193 11.074 182.82 17.9455 182.82 31.2995V71C182.82 72.1046 181.925 73 180.82 73H172.727Z" fill="white"/>
<path d="M154.939 43.6696V40.2693C154.939 38.4213 152.131 36.9987 150.358 37.5187C148.373 38.1008 145.769 38.5388 142.304 38.9768L127.735 40.8018C117.55 42.2357 112.393 44.7125 112.393 52.0125C112.393 58.4 118.71 62.8321 128.122 62.8321C142.69 62.8321 154.939 55.1411 154.939 43.6696ZM114.77 21.8069C114.599 22.869 113.733 23.725 112.657 23.725H104.644C103.319 23.725 102.36 22.4522 102.767 21.1913C107.916 5.23526 116.73 0 135.986 0C149.781 0 167.058 3.38929 167.058 19.4232V49.9023C167 58 166.5 60.7579 168.5 60.7579H169.587C170.259 60.7579 170.802 60.2104 170.797 59.5387C170.785 58.1006 172.845 57.8473 173.182 59.2453L175.904 70.5311C176.207 71.7893 175.254 73 173.96 73C171.06 73 166.72 73 164.5 73C159.551 73 157.585 71.0799 156.53 66.8507C156.093 65.0988 153.609 64.3332 152.184 65.4416C145.949 70.2896 135.936 73 126.961 73C104.657 73 99.5 61.2679 99.5 52.4036C99.5 39.7589 106.849 33.6321 128.509 31.1554L143.206 29.5911C150.426 28.9393 154.939 27.5054 154.939 21.3786C154.939 11.9929 145.914 10.1679 135.471 10.1679C125.215 10.1679 116.201 12.9079 114.77 21.8069Z" fill="white"/>
<path d="M71.5275 41.8349C71.743 43.8903 74.5544 44.3086 75.3588 42.4048L92.5568 1.70553C92.8697 0.965163 93.5953 0.484009 94.3991 0.484009H104.326C105.775 0.484009 106.743 1.97617 106.153 3.29904L72.337 79.076C65.809 93.412 60.945 95.716 49.041 95.716C46.4008 95.716 43.8478 95.6289 41.0943 95.3827C40.0793 95.292 39.313 94.433 39.313 93.4139V86.56C39.313 85.4142 40.2738 84.5073 41.4142 84.6196C43.0044 84.7763 44.5891 84.964 46.737 84.964C54.545 84.964 56.593 83.3 60.689 74.724L63.338 69.1957C63.5292 68.7966 63.5827 68.3452 63.4899 67.9124L49.5594 2.90307C49.2926 1.65804 50.2417 0.484009 51.515 0.484009H65.3907C66.4145 0.484009 67.2731 1.25721 67.3798 2.27546L71.5275 41.8349Z" fill="white"/>
<path d="M2 73C0.895432 73 0 72.1046 0 71V2C0 0.895432 0.895431 0 2 0H12.4683C13.5858 0 14.4865 0.915798 14.468 2.0332L14.2495 15.1938C14.248 15.282 14.3191 15.3542 14.4073 15.3542C14.4654 15.3542 14.5194 15.3213 14.547 15.2701C20.535 4.15431 28.9271 0 37.446 0C40.0802 0 41.6692 0.0920354 43.5089 0.504323C44.2503 0.670458 44.8021 1.28007 44.9451 2.02623L46.8815 12.1279C47.1637 13.5996 45.7712 14.898 44.2911 14.6637C41.4259 14.2102 38.0998 14.0074 35.6614 14.0074C23.0421 14.0074 14.2468 21.9539 14.2468 37.1734V71C14.2468 72.1046 13.3514 73 12.2468 73H2Z" fill="white"/>
</svg>
