<svg width="495" height="96" viewBox="0 0 495 96" fill="none" xmlns="http://www.w3.org/2000/svg">
<path d="M481.132 48.6058C481.722 46.8751 483.292 45.625 485.12 45.625H490.29C492.919 45.625 494.842 48.1301 493.947 50.6025C487.935 67.2269 476.582 73 460.763 73C434.297 73 424.5 54.6196 424.5 36.8911C424.5 16.6857 436.715 0 460.636 0C476.772 0 489.88 6.7383 494.192 20.6024C494.922 22.9491 493.023 25.1589 490.565 25.1589H485.128C483.181 25.1589 481.569 23.7325 480.9 21.9041C478.373 15.0031 471.832 10.95 461.527 10.95C445.24 10.95 437.987 21.9 437.987 36.5C437.987 51.1 445.24 62.05 461.527 62.05C472.048 62.05 477.947 57.9598 481.132 48.6058Z" fill="white"/>
<path d="M410.651 43.6171V40.2434C410.651 38.3934 407.833 36.9653 406.058 37.4844C404.088 38.0605 401.508 38.4952 398.082 38.9299L383.589 40.7527C373.456 42.1849 368.326 44.6587 368.326 51.9499C368.326 58.3297 374.611 62.7566 383.974 62.7566C398.467 62.7566 410.651 55.0747 410.651 43.6171ZM370.691 21.778C370.521 22.8402 369.655 23.6965 368.579 23.6965H360.655C359.474 23.6965 358.544 22.6702 358.728 21.503C361.151 6.06816 372.548 0 391.797 0C405.521 0 424.812 4.90283 423.309 18.6349L422.808 22.7037L421.305 32.8756C420 43 422.5 52.5 428.5 62C431.698 66.5686 416.971 81.2931 412.416 66.7737C411.874 65.0488 409.311 64.2729 407.884 65.3834C401.68 70.2127 391.735 72.9122 382.819 72.9122C360.63 72.9122 355.5 61.1942 355.5 52.3405C355.5 39.7111 362.811 33.5917 384.358 31.1179L398.98 29.5555C406.162 28.9045 410.651 27.4723 410.651 21.3529C410.651 11.9784 401.673 10.1556 391.284 10.1556C381.083 10.1556 372.117 12.8918 370.691 21.778Z" fill="white"/>
<path d="M341.777 73C340.672 73 339.777 72.1046 339.777 71V28.1494C339.777 15.2196 332.016 11.3137 323.746 11.3137C312.167 11.3137 301.862 17.1052 301.862 30.3044V71C301.862 72.1046 300.966 73 299.862 73H291.138C290.034 73 289.138 72.1046 289.138 71V28.1494C289.138 15.2196 281.377 11.3137 273.107 11.3137C261.529 11.3137 251.223 18.452 251.223 32.3247V71C251.223 72.1046 250.328 73 249.223 73H240.5C239.395 73 238.5 72.1046 238.5 71V2C238.5 0.895432 239.395 0 240.5 0H249.438C250.558 0 251.46 0.919347 251.438 2.03894L251.226 12.8993C251.225 12.9901 251.298 13.0646 251.389 13.0646C251.444 13.0646 251.496 13.0355 251.526 12.9887C257.764 3.21584 267.916 0 277.56 0C285.39 0 293.117 3.08902 298.569 10.565C299.408 11.7159 301.154 11.816 302.094 10.7456C307.981 4.0408 315.724 0 327.181 0C333.924 0 352.5 3.36716 352.5 24.917V71C352.5 72.1046 351.605 73 350.5 73H341.777Z" fill="white"/>
<path d="M170.178 73C169.073 73 168.178 72.1046 168.178 71V2.18336C168.178 1.07879 169.073 0.183354 170.178 0.183354H178.82C179.925 0.183354 180.82 1.07878 180.82 2.18335V12.5928C180.82 12.6849 180.895 12.7595 180.987 12.7595C181.043 12.7595 181.095 12.7309 181.126 12.6844C187.405 3.27851 197.621 0.183354 207.328 0.183354C223.463 0.183354 235.5 7.18449 235.5 24.1687V71C235.5 72.1046 234.605 73 233.5 73H224.694C223.59 73 222.694 72.1046 222.694 71V26.7617C222.694 16.7786 216.676 11.074 202.846 11.074C191.193 11.074 180.82 17.9455 180.82 31.2995V71C180.82 72.1046 179.925 73 178.82 73H170.178Z" fill="white"/>
<path d="M152.939 43.6696V40.2693C152.939 38.4213 150.131 36.9987 148.358 37.5187C146.373 38.1008 143.769 38.5388 140.304 38.9768L125.735 40.8018C115.55 42.2357 110.393 44.7125 110.393 52.0125C110.393 58.4 116.71 62.8321 126.122 62.8321C140.69 62.8321 152.939 55.1411 152.939 43.6696ZM112.77 21.8069C112.599 22.869 111.733 23.725 110.657 23.725H102.644C101.319 23.725 100.36 22.4522 100.767 21.1913C105.916 5.23526 114.73 0 133.986 0C147.781 0 165.058 3.38929 165.058 19.4232V49.9023C165.058 53.8131 164.5 60.5 166.5 60.5C167.426 60.5 168.175 59.7349 168.172 58.8094C168.164 56.5533 171.435 56.0901 171.837 58.3101L174.072 70.6434C174.294 71.8707 173.353 73 172.106 73C169.208 73 164.757 73 162.5 73C157.551 73 155.585 71.0799 154.53 66.8507C154.093 65.0988 151.609 64.3332 150.184 65.4416C143.949 70.2896 133.936 73 124.961 73C102.657 73 97.5 61.2679 97.5 52.4036C97.5 39.7589 104.849 33.6321 126.509 31.1554L141.206 29.5911C148.426 28.9393 152.939 27.5054 152.939 21.3786C152.939 11.9929 143.914 10.1679 133.471 10.1679C123.215 10.1679 114.201 12.9079 112.77 21.8069Z" fill="white"/>
<path d="M70.5275 41.8349C70.743 43.8903 73.5544 44.3086 74.3588 42.4048L91.5568 1.70553C91.8697 0.965163 92.5953 0.484009 93.3991 0.484009H103.326C104.775 0.484009 105.743 1.97617 105.153 3.29904L71.337 79.076C64.809 93.412 59.945 95.716 48.041 95.716C45.4008 95.716 42.8478 95.6289 40.0943 95.3827C39.0793 95.292 38.313 94.433 38.313 93.4139V86.56C38.313 85.4142 39.2738 84.5073 40.4142 84.6196C42.0044 84.7763 43.5891 84.964 45.737 84.964C53.545 84.964 55.593 83.3 59.689 74.724L62.338 69.1957C62.5292 68.7966 62.5827 68.3452 62.4899 67.9124L48.5594 2.90307C48.2926 1.65804 49.2417 0.484009 50.515 0.484009H64.3907C65.4145 0.484009 66.2731 1.25721 66.3798 2.27546L70.5275 41.8349Z" fill="white"/>
<path d="M2 73C0.895432 73 0 72.1046 0 71V2C0 0.895432 0.895431 0 2 0H12.4683C13.5858 0 14.4865 0.915798 14.468 2.0332L14.2495 15.1938C14.248 15.282 14.3191 15.3542 14.4073 15.3542C14.4654 15.3542 14.5194 15.3213 14.547 15.2701C20.535 4.15431 28.9271 0 37.446 0C40.0802 0 41.6692 0.0920354 43.5089 0.504323C44.2503 0.670458 44.8021 1.28007 44.9451 2.02623L46.8815 12.1279C47.1637 13.5996 45.7712 14.898 44.2911 14.6637C41.4259 14.2102 38.0998 14.0074 35.6614 14.0074C23.0421 14.0074 14.2468 21.9539 14.2468 37.1734V71C14.2468 72.1046 13.3514 73 12.2468 73H2Z" fill="white"/>
</svg>
